<?xml version="1.0" encoding="UTF-8"?>
<svg width="503px" height="103px" viewBox="0 0 503 103" version="1.1" xmlns="http://www.w3.org/2000/svg" xmlns:xlink="http://www.w3.org/1999/xlink">
    <title>talentlabs-logo</title>
    <g id="Page-1" stroke="none" stroke-width="1" fill="none" fill-rule="evenodd">
        <g id="talentlabs-logo" transform="translate(1.000000, 1.000000)" fill="#ffffff" fill-rule="nonzero" stroke="#374453">
            <path d="M27.0260152,85.8919668 L0,58.1939058 L27.0260152,30.2160665 L30.4219543,33.433518 L6.50888325,58.1939058 L30.4219543,82.6745152 L27.0260152,85.8919668 Z M44.9961929,100.300554 L40.3267766,100.300554 L68.4847716,5.73545706 L73.1541878,5.73545706 L44.9961929,100.300554 Z M87.7284264,35.9515235 L87.7284264,82.2548476 C87.7284264,84.2133062 88.0585838,86.0551622 88.7189086,87.7804709 C89.3792334,89.5057796 90.2753751,90.9979161 91.4073604,92.2569252 C92.5393458,93.5159343 93.8599755,94.5184635 95.3692893,95.2645429 C96.8786031,96.0106224 98.482225,96.3836565 100.180203,96.3836565 L100.180203,101 C97.8219002,101 95.6051288,100.510393 93.5298223,99.5311634 C91.4545159,98.5519342 89.6386499,97.2230001 88.0821701,95.5443213 C86.5256902,93.8656426 85.2993911,91.8838988 84.403236,89.5990305 C83.507081,87.3141622 83.0590102,84.8661257 83.0590102,82.2548476 L83.0590102,11.7506925 L87.7284264,11.7506925 L87.7284264,31.3351801 L103.010152,31.3351801 L103.010152,35.9515235 L87.7284264,35.9515235 Z M130.177665,30.6357341 C132.818964,30.6357341 135.224397,31.1253414 137.394036,32.1045706 C139.563674,33.0837999 141.426705,34.412734 142.983185,36.0914127 C144.539665,37.7700915 145.765964,39.7518353 146.662119,42.0367036 C147.558274,44.3215719 148.006345,46.7696084 148.006345,49.3808864 L148.006345,100.300554 L143.336929,100.300554 L143.336929,94.565097 C141.544619,96.5235555 139.422178,98.0856359 136.969543,99.251385 C134.516908,100.417134 131.875649,101 129.045685,101 C126.404386,101 123.928205,100.510393 121.617069,99.5311634 C119.305932,98.5519342 117.301404,97.2230001 115.603426,95.5443213 C113.905448,93.8656426 112.561236,91.8838988 111.570749,89.5990305 C110.580262,87.3141622 110.085025,84.8661257 110.085025,82.2548476 L110.085025,78.3379501 C110.085025,72.5558344 113.669592,68.3592005 120.838832,65.7479224 C121.687822,65.3748827 123.126365,64.8153315 125.154505,64.0692521 C127.182646,63.3231726 129.352252,62.5071605 131.663388,61.6211911 C133.974525,60.7352218 136.214879,59.895895 138.384518,59.1031856 C140.554156,58.3104762 142.204944,57.6809811 143.336929,57.2146814 L143.336929,49.3808864 C143.336929,45.4639693 142.134213,42.1299768 139.728744,39.3788089 C137.323275,36.6276409 134.139614,35.2520776 130.177665,35.2520776 C128.196691,35.2520776 126.357242,35.6251117 124.659264,36.3711911 C122.961286,37.1172706 121.451995,38.1197998 120.131345,39.3788089 C118.810696,40.6378179 117.773058,42.1299544 117.018401,43.8552632 C116.263744,45.5805719 115.886421,47.4224279 115.886421,49.3808864 L111.217005,49.3808864 C111.217005,46.7696084 111.712241,44.3215719 112.702728,42.0367036 C113.693216,39.7518353 115.037428,37.7700915 116.735406,36.0914127 C118.433384,34.412734 120.437911,33.0837999 122.749048,32.1045706 C125.060185,31.1253414 127.536366,30.6357341 130.177665,30.6357341 Z M143.336929,82.2548476 L143.336929,62.2506925 C141.921947,62.8102521 140.176829,63.4630618 138.101523,64.2091413 C136.026216,64.9552207 133.950941,65.7246036 131.875635,66.517313 C129.800328,67.3100224 127.913714,68.0327761 126.215736,68.6855956 C124.517758,69.3384151 123.291459,69.8047077 122.536802,70.0844875 C120.744492,70.737307 118.999374,71.7165216 117.301396,73.0221607 C115.603418,74.3277997 114.754442,76.0997118 114.754442,78.3379501 L114.754442,82.2548476 C114.754442,84.2133062 115.131764,86.0551622 115.886421,87.7804709 C116.641078,89.5057796 117.655133,90.9979161 118.928617,92.2569252 C120.2021,93.5159343 121.711391,94.5184635 123.456536,95.2645429 C125.20168,96.0106224 127.064711,96.3836565 129.045685,96.3836565 C131.02666,96.3836565 132.889691,96.0106224 134.634835,95.2645429 C136.379979,94.5184635 137.88927,93.5159343 139.162754,92.2569252 C140.436237,90.9979161 141.450292,89.5057796 142.204949,87.7804709 C142.959606,86.0551622 143.336929,84.2133062 143.336929,82.2548476 Z M162.580584,100.300554 L157.911168,100.300554 L157.911168,0 L162.580584,0 L162.580584,100.300554 Z M201.067893,61.9709141 C200.218904,62.2506939 198.803944,62.7869305 196.82297,63.5796399 C194.841995,64.3723493 192.695972,65.1883615 190.384835,66.0277008 C188.073698,66.8670402 185.833344,67.706367 183.663706,68.5457064 C181.494067,69.3850457 179.796114,69.9912262 178.569797,70.3642659 L178.569797,82.2548476 C178.569797,84.2133062 178.94712,86.0551622 179.701777,87.7804709 C180.456434,89.5057796 181.470489,90.9979161 182.743972,92.2569252 C184.017456,93.5159343 185.526747,94.5184635 187.271891,95.2645429 C189.017035,96.0106224 190.880066,96.3836565 192.861041,96.3836565 C194.842015,96.3836565 196.705046,96.0106224 198.45019,95.2645429 C200.195334,94.5184635 201.704626,93.5159343 202.978109,92.2569252 C204.251593,90.9979161 205.265648,89.5057796 206.020305,87.7804709 C206.774961,86.0551622 207.152284,84.2133062 207.152284,82.2548476 L211.821701,82.2548476 C211.821701,84.8661257 211.326464,87.3141622 210.335977,89.5990305 C209.34549,91.8838988 208.001278,93.8656426 206.303299,95.5443213 C204.605321,97.2230001 202.600794,98.5519342 200.289657,99.5311634 C197.978521,100.510393 195.50234,101 192.861041,101 C190.219741,101 187.743561,100.510393 185.432424,99.5311634 C183.121287,98.5519342 181.11676,97.2230001 179.418782,95.5443213 C177.720804,93.8656426 176.376591,91.8838988 175.386104,89.5990305 C174.395617,87.3141622 173.900381,84.8661257 173.900381,82.2548476 L173.900381,49.3808864 C173.900381,46.7696084 174.395617,44.3215719 175.386104,42.0367036 C176.376591,39.7518353 177.720804,37.7700915 179.418782,36.0914127 C181.11676,34.412734 183.121287,33.0837999 185.432424,32.1045706 C187.743561,31.1253414 190.219741,30.6357341 192.861041,30.6357341 C195.50234,30.6357341 197.978521,31.1253414 200.289657,32.1045706 C202.600794,33.0837999 204.605321,34.412734 206.303299,36.0914127 C208.001278,37.7700915 209.34549,39.7518353 210.335977,42.0367036 C211.326464,44.3215719 211.821701,46.7229791 211.821701,49.2409972 L211.821701,49.3808864 C211.821701,55.1630021 208.237134,59.3596361 201.067893,61.9709141 Z M192.861041,35.2520776 C190.880066,35.2520776 189.017035,35.6251117 187.271891,36.3711911 C185.526747,37.1172706 184.017456,38.1197998 182.743972,39.3788089 C181.470489,40.6378179 180.456434,42.1299544 179.701777,43.8552632 C178.94712,45.5805719 178.569797,47.4224279 178.569797,49.3808864 L178.569797,65.468144 C179.984779,64.9085845 181.729897,64.2324601 183.805203,63.4397507 C185.88051,62.6470413 187.955785,61.8776584 190.031091,61.1315789 C192.106398,60.3854995 194.016594,59.6860605 195.761739,59.033241 C197.506883,58.3804215 198.756764,57.9141288 199.511421,57.634349 C201.209399,56.9815295 202.907352,56.0023149 204.60533,54.6966759 C206.303308,53.3910369 207.152284,51.5724955 207.152284,49.2409972 C207.152284,47.2825387 206.774961,45.4639973 206.020305,43.7853186 C205.265648,42.1066398 204.251593,40.6378179 202.978109,39.3788089 C201.704626,38.1197998 200.195334,37.1172706 198.45019,36.3711911 C196.705046,35.6251117 194.842015,35.2520776 192.861041,35.2520776 Z M240.687183,30.6357341 C243.328482,30.6357341 245.804663,31.1253414 248.115799,32.1045706 C250.426936,33.0837999 252.431464,34.412734 254.129442,36.0914127 C255.82742,37.7700915 257.171632,39.7518353 258.162119,42.0367036 C259.152606,44.3215719 259.647843,46.7696084 259.647843,49.3808864 L259.647843,100.300554 L254.978426,100.300554 L254.978426,49.3808864 C254.978426,47.4224279 254.601104,45.5805719 253.846447,43.8552632 C253.09179,42.1299544 252.077735,40.6378179 250.804251,39.3788089 C249.530768,38.1197998 248.021477,37.1172706 246.276332,36.3711911 C244.531188,35.6251117 242.668157,35.2520776 240.687183,35.2520776 C238.706208,35.2520776 236.843177,35.6251117 235.098033,36.3711911 C233.352889,37.1172706 231.843598,38.1197998 230.570114,39.3788089 C229.296631,40.6378179 228.282576,42.1299544 227.527919,43.8552632 C226.773262,45.5805719 226.395939,47.4224279 226.395939,49.3808864 L226.395939,100.300554 L221.726523,100.300554 L221.726523,31.3351801 L226.395939,31.3351801 L226.395939,37.0706371 C228.188249,35.0189186 230.31069,33.4335236 232.763325,32.3144044 C235.21596,31.1952853 237.857219,30.6357341 240.687183,30.6357341 Z M274.222081,35.9515235 L274.222081,82.2548476 C274.222081,84.2133062 274.552239,86.0551622 275.212563,87.7804709 C275.872888,89.5057796 276.76903,90.9979161 277.901015,92.2569252 C279.033001,93.5159343 280.35363,94.5184635 281.862944,95.2645429 C283.372258,96.0106224 284.97588,96.3836565 286.673858,96.3836565 L286.673858,101 C284.315555,101 282.098784,100.510393 280.023477,99.5311634 C277.948171,98.5519342 276.132305,97.2230001 274.575825,95.5443213 C273.019345,93.8656426 271.793046,91.8838988 270.896891,89.5990305 C270.000736,87.3141622 269.552665,84.8661257 269.552665,82.2548476 L269.552665,11.7506925 L274.222081,11.7506925 L274.222081,31.3351801 L289.503807,31.3351801 L289.503807,35.9515235 L274.222081,35.9515235 Z M301.248096,100.300554 L296.57868,100.300554 L296.57868,0 L301.248096,0 L301.248096,100.300554 Z M331.953046,30.6357341 C334.594345,30.6357341 336.999778,31.1253414 339.169416,32.1045706 C341.339055,33.0837999 343.202086,34.412734 344.758566,36.0914127 C346.315046,37.7700915 347.541345,39.7518353 348.4375,42.0367036 C349.333655,44.3215719 349.781726,46.7696084 349.781726,49.3808864 L349.781726,100.300554 L345.11231,100.300554 L345.11231,94.565097 C343.319999,96.5235555 341.197559,98.0856359 338.744924,99.251385 C336.292289,100.417134 333.651029,101 330.821066,101 C328.179767,101 325.703586,100.510393 323.392449,99.5311634 C321.081312,98.5519342 319.076785,97.2230001 317.378807,95.5443213 C315.680829,93.8656426 314.336617,91.8838988 313.346129,89.5990305 C312.355642,87.3141622 311.860406,84.8661257 311.860406,82.2548476 L311.860406,78.3379501 C311.860406,72.5558344 315.444973,68.3592005 322.614213,65.7479224 C323.463202,65.3748827 324.901745,64.8153315 326.929886,64.0692521 C328.958026,63.3231726 331.127632,62.5071605 333.438769,61.6211911 C335.749906,60.7352218 337.99026,59.895895 340.159898,59.1031856 C342.329537,58.3104762 343.980324,57.6809811 345.11231,57.2146814 L345.11231,49.3808864 C345.11231,45.4639693 343.909593,42.1299768 341.504124,39.3788089 C339.098655,36.6276409 335.914994,35.2520776 331.953046,35.2520776 C329.972071,35.2520776 328.132623,35.6251117 326.434645,36.3711911 C324.736667,37.1172706 323.227375,38.1197998 321.906726,39.3788089 C320.586076,40.6378179 319.548439,42.1299544 318.793782,43.8552632 C318.039125,45.5805719 317.661802,47.4224279 317.661802,49.3808864 L312.992386,49.3808864 C312.992386,46.7696084 313.487622,44.3215719 314.478109,42.0367036 C315.468596,39.7518353 316.812809,37.7700915 318.510787,36.0914127 C320.208765,34.412734 322.213292,33.0837999 324.524429,32.1045706 C326.835566,31.1253414 329.311747,30.6357341 331.953046,30.6357341 Z M345.11231,82.2548476 L345.11231,62.2506925 C343.697328,62.8102521 341.95221,63.4630618 339.876904,64.2091413 C337.801597,64.9552207 335.726322,65.7246036 333.651015,66.517313 C331.575709,67.3100224 329.689095,68.0327761 327.991117,68.6855956 C326.293139,69.3384151 325.06684,69.8047077 324.312183,70.0844875 C322.519873,70.737307 320.774755,71.7165216 319.076777,73.0221607 C317.378799,74.3277997 316.529822,76.0997118 316.529822,78.3379501 L316.529822,82.2548476 C316.529822,84.2133062 316.907145,86.0551622 317.661802,87.7804709 C318.416459,89.5057796 319.430514,90.9979161 320.703997,92.2569252 C321.977481,93.5159343 323.486772,94.5184635 325.231916,95.2645429 C326.97706,96.0106224 328.840092,96.3836565 330.821066,96.3836565 C332.80204,96.3836565 334.665072,96.0106224 336.410216,95.2645429 C338.15536,94.5184635 339.664651,93.5159343 340.938135,92.2569252 C342.211618,90.9979161 343.225673,89.5057796 343.98033,87.7804709 C344.734987,86.0551622 345.11231,84.2133062 345.11231,82.2548476 Z M379.213198,30.6357341 C381.854497,30.6357341 384.330678,31.1253414 386.641815,32.1045706 C388.952951,33.0837999 390.957479,34.412734 392.655457,36.0914127 C394.353435,37.7700915 395.697647,39.7518353 396.688135,42.0367036 C397.678622,44.3215719 398.173858,46.7696084 398.173858,49.3808864 L398.173858,82.2548476 C398.173858,84.8661257 397.678622,87.3141622 396.688135,89.5990305 C395.697647,91.8838988 394.353435,93.8656426 392.655457,95.5443213 C390.957479,97.2230001 388.952951,98.5519342 386.641815,99.5311634 C384.330678,100.510393 381.854497,101 379.213198,101 C376.383235,101 373.741975,100.417134 371.28934,99.251385 C368.836705,98.0856359 366.714264,96.5235555 364.921954,94.565097 L364.921954,100.300554 L360.252538,100.300554 L360.252538,0 L364.921954,0 L364.921954,37.0706371 C366.714264,35.0189186 368.836705,33.4335236 371.28934,32.3144044 C373.741975,31.1952853 376.383235,30.6357341 379.213198,30.6357341 Z M393.504442,49.3808864 C393.504442,47.4224279 393.127119,45.5805719 392.372462,43.8552632 C391.617805,42.1299544 390.60375,40.6378179 389.330266,39.3788089 C388.056783,38.1197998 386.547492,37.1172706 384.802348,36.3711911 C383.057204,35.6251117 381.194172,35.2520776 379.213198,35.2520776 C377.232224,35.2520776 375.369192,35.6251117 373.624048,36.3711911 C371.878904,37.1172706 370.369613,38.1197998 369.096129,39.3788089 C367.822646,40.6378179 366.808591,42.1299544 366.053934,43.8552632 C365.299277,45.5805719 364.921954,47.4224279 364.921954,49.3808864 L364.921954,82.2548476 C364.921954,84.2133062 365.299277,86.0551622 366.053934,87.7804709 C366.808591,89.5057796 367.822646,90.9979161 369.096129,92.2569252 C370.369613,93.5159343 371.878904,94.5184635 373.624048,95.2645429 C375.369192,96.0106224 377.232224,96.3836565 379.213198,96.3836565 C381.194172,96.3836565 383.057204,96.0106224 384.802348,95.2645429 C386.547492,94.5184635 388.056783,93.5159343 389.330266,92.2569252 C390.60375,90.9979161 391.617805,89.5057796 392.372462,87.7804709 C393.127119,86.0551622 393.504442,84.2133062 393.504442,82.2548476 L393.504442,49.3808864 Z M428.17132,63.6495845 C430.246626,64.6754437 432.345484,65.7712315 434.467957,66.9369806 C436.590429,68.1027297 438.500626,69.4316638 440.198604,70.9238227 C441.896582,72.4159816 443.28796,74.0713205 444.372779,75.8898892 C445.457598,77.7084578 446,79.8300894 446,82.2548476 C446,84.8661257 445.504764,87.3141622 444.514277,89.5990305 C443.523789,91.8838988 442.179577,93.8656426 440.481599,95.5443213 C438.783621,97.2230001 436.779094,98.5519342 434.467957,99.5311634 C432.15682,100.510393 429.680639,101 427.03934,101 C424.398041,101 421.92186,100.510393 419.610723,99.5311634 C417.299587,98.5519342 415.295059,97.2230001 413.597081,95.5443213 C411.899103,93.8656426 410.554891,91.8838988 409.564404,89.5990305 C408.573916,87.3141622 408.07868,84.8661257 408.07868,82.2548476 L412.748096,82.2548476 C412.748096,84.2133062 413.125419,86.0551622 413.880076,87.7804709 C414.634733,89.5057796 415.648788,90.9979161 416.922272,92.2569252 C418.195755,93.5159343 419.705046,94.5184635 421.45019,95.2645429 C423.195334,96.0106224 425.058366,96.3836565 427.03934,96.3836565 C429.020314,96.3836565 430.883346,96.0106224 432.62849,95.2645429 C434.373634,94.5184635 435.882925,93.5159343 437.156409,92.2569252 C438.429892,90.9979161 439.443947,89.5057796 440.198604,87.7804709 C440.953261,86.0551622 441.330584,84.2133062 441.330584,82.2548476 C441.330584,80.5761689 440.906096,79.0607177 440.057107,77.7084488 C439.208118,76.3561798 438.076149,75.1205042 436.661168,74.001385 C435.246186,72.8822659 433.618981,71.8331074 431.779505,70.8538781 C429.940029,69.8746488 428.029832,68.8721196 426.048858,67.8462604 C423.879219,66.8204011 421.733196,65.7246134 419.610723,64.5588643 C417.488251,63.3931151 415.578054,62.0874957 413.880076,60.6419668 C412.182098,59.1964378 410.79072,57.5644135 409.705901,55.7458449 C408.621082,53.9272762 408.07868,51.8056446 408.07868,49.3808864 C408.07868,46.7696084 408.573916,44.3215719 409.564404,42.0367036 C410.554891,39.7518353 411.899103,37.7700915 413.597081,36.0914127 C415.295059,34.412734 417.299587,33.0837999 419.610723,32.1045706 C421.92186,31.1253414 424.398041,30.6357341 427.03934,30.6357341 C429.680639,30.6357341 432.15682,31.1253414 434.467957,32.1045706 C436.779094,33.0837999 438.783621,34.412734 440.481599,36.0914127 C442.179577,37.7700915 443.523789,39.7518353 444.514277,42.0367036 C445.504764,44.3215719 446,46.7696084 446,49.3808864 L441.330584,49.3808864 C441.330584,47.4224279 440.953261,45.5805719 440.198604,43.8552632 C439.443947,42.1299544 438.429892,40.6378179 437.156409,39.3788089 C435.882925,38.1197998 434.373634,37.1172706 432.62849,36.3711911 C430.883346,35.6251117 429.020314,35.2520776 427.03934,35.2520776 C425.058366,35.2520776 423.195334,35.6251117 421.45019,36.3711911 C419.705046,37.1172706 418.195755,38.1197998 416.922272,39.3788089 C415.648788,40.6378179 414.634733,42.1299544 413.880076,43.8552632 C413.125419,45.5805719 412.748096,47.4224279 412.748096,49.3808864 C412.748096,51.0595652 413.172585,52.5750163 414.021574,53.9272853 C414.870563,55.2795543 416.026114,56.5152299 417.488261,57.634349 C418.950409,58.7534682 420.601196,59.8026267 422.440673,60.781856 C424.280149,61.7610852 426.190345,62.7169852 428.17132,63.6495845 Z M474.348837,86 L471,82.7638191 L494.581395,58.1407035 L471,33.2361809 L474.348837,30 L501,58.1407035 L474.348837,86 Z" id="Combined-Shape"></path>
        </g>
    </g>
</svg>
